<svg width="29" height="23" viewBox="0 0 29 23" fill="none" xmlns="http://www.w3.org/2000/svg">
<path d="M24.0833 0H4.25C3.12283 0 2.04183 0.447767 1.2448 1.2448C0.447767 2.04183 0 3.12283 0 4.25V18.4167C0 19.5438 0.447767 20.6248 1.2448 21.4219C2.04183 22.2189 3.12283 22.6667 4.25 22.6667H24.0833C25.2105 22.6667 26.2915 22.2189 27.0885 21.4219C27.8856 20.6248 28.3333 19.5438 28.3333 18.4167V4.25C28.3333 3.12283 27.8856 2.04183 27.0885 1.2448C26.2915 0.447767 25.2105 0 24.0833 0ZM24.0833 2.83333L14.875 9.16583C14.6596 9.29017 14.4153 9.35563 14.1667 9.35563C13.918 9.35563 13.6737 9.29017 13.4583 9.16583L4.25 2.83333H24.0833Z" fill="white"/>
</svg>
