<svg width="50" height="73" viewBox="0 0 50 73" fill="none" xmlns="http://www.w3.org/2000/svg">
<path d="M10.5 47.8747L10.5 54.3747C10.5 56.778 11.0923 59.1442 12.2244 61.264C13.3565 63.3839 14.9936 65.1921 16.9908 66.5288C18.988 67.8654 21.2839 68.6893 23.6753 68.9275C26.0667 69.1657 28.4799 68.8109 30.7016 67.8946C32.9233 66.9782 34.8849 65.5285 36.4129 63.6736C37.941 61.8187 38.9884 59.6159 39.4625 57.2599C39.9367 54.9039 39.8229 52.4673 39.1313 50.1658C38.4397 47.8642 37.1916 45.7685 35.4974 44.0641C32.8486 41.3991 25.125 36.4997 25.125 36.4997C25.125 36.4997 17.4355 31.615 14.79 28.9727C13.088 27.2729 11.8316 25.1794 11.1321 22.8779C10.4325 20.5764 10.3115 18.1379 10.7797 15.7784C11.2479 13.4189 12.2908 11.2113 13.8161 9.35129C15.3414 7.49123 17.3019 6.03612 19.524 5.11488C21.7461 4.19365 24.1611 3.83473 26.555 4.06994C28.949 4.30514 31.2479 5.1272 33.2482 6.46329C35.2485 7.79938 36.8884 9.60823 38.0225 11.7296C39.1566 13.8509 39.75 16.2192 39.75 18.6247L39.75 25.1247" stroke="white" stroke-width="6.5" stroke-linecap="round" stroke-linejoin="round"/>
<path d="M33.25 18.6245L39.75 25.1245L46.25 18.6245M4 54.3745L10.5 47.8745L17 54.3745" stroke="white" stroke-width="6.5" stroke-linecap="round" stroke-linejoin="round"/>
</svg>
