<svg width="34" height="26" viewBox="0 0 34 26" fill="none" xmlns="http://www.w3.org/2000/svg">
<path d="M24.375 2.19283C22.216 1.47742 19.6235 1 16.5833 1C13.5446 1 10.9507 1.47742 8.79167 2.19283M24.375 2.19283C28.6547 3.6095 31.2246 5.96117 32.1667 7.375L28.625 10.9167L24.375 8.08333V2.19283ZM8.79167 2.19283C4.51192 3.6095 1.94208 5.96117 1 7.375L4.54167 10.9167L8.79167 8.08333V2.19283Z" fill="white"/>
<path d="M24.375 2.19283C22.216 1.47742 19.6235 1 16.5833 1C13.5446 1 10.9507 1.47742 8.79167 2.19283M24.375 2.19283C28.6547 3.6095 31.2246 5.96117 32.1667 7.375L28.625 10.9167L24.375 8.08333V2.19283ZM8.79167 2.19283C4.51192 3.6095 1.94208 5.96117 1 7.375L4.54167 10.9167L8.79167 8.08333V2.19283Z" stroke="white" stroke-width="2" stroke-linecap="round" stroke-linejoin="round"/>
<path fill-rule="evenodd" clip-rule="evenodd" d="M13.75 3.8335C14.1257 3.8335 14.486 3.98275 14.7517 4.24843C15.0174 4.5141 15.1666 4.87444 15.1666 5.25016V8.0835H18V5.25016C18 4.87444 18.1492 4.5141 18.4149 4.24843C18.6806 3.98275 19.0409 3.8335 19.4166 3.8335C19.7924 3.8335 20.1527 3.98275 20.4184 4.24843C20.6841 4.5141 20.8333 4.87444 20.8333 5.25016V8.91366L28.0881 16.1684C28.8851 16.9653 29.3331 18.0461 29.3333 19.1732V20.8335C29.3333 21.9607 28.8855 23.0417 28.0885 23.8387C27.2915 24.6357 26.2105 25.0835 25.0833 25.0835H8.08331C6.95614 25.0835 5.87514 24.6357 5.07811 23.8387C4.28108 23.0417 3.83331 21.9607 3.83331 20.8335V19.1732C3.83393 18.0466 4.28183 16.9663 5.07856 16.1698L12.3333 8.91225V5.25016C12.3333 4.87444 12.4826 4.5141 12.7482 4.24843C13.0139 3.98275 13.3743 3.8335 13.75 3.8335ZM16.5833 19.4168C17.3348 19.4168 18.0554 19.1183 18.5868 18.587C19.1181 18.0556 19.4166 17.3349 19.4166 16.5835C19.4166 15.832 19.1181 15.1114 18.5868 14.58C18.0554 14.0487 17.3348 13.7502 16.5833 13.7502C15.8319 13.7502 15.1112 14.0487 14.5798 14.58C14.0485 15.1114 13.75 15.832 13.75 16.5835C13.75 17.3349 14.0485 18.0556 14.5798 18.587C15.1112 19.1183 15.8319 19.4168 16.5833 19.4168Z" fill="white"/>
</svg>
